<svg width="118" height="118" viewBox="0 0 118 118" fill="none" xmlns="http://www.w3.org/2000/svg">
<path fill-rule="evenodd" clip-rule="evenodd" d="M87.2883 91.1918L93.5545 21H24.7727L31.0323 91.2028L59.1215 99L87.2883 91.1918ZM69.7377 61.3871L68.7382 72.5537L59.1345 75.1456V75.1464L59.1263 75.1486L49.5364 72.5593L48.9234 65.6924H44.2635H40.2795L41.4859 79.2114L59.1244 84.1076L59.164 84.0966V84.0952L76.787 79.2114L76.9165 77.7567L78.9399 55.0892L79.15 52.7771L80.7046 35.3501H59.1345V35.3501H59.1337H37.5718L38.3545 43.9603H59.1635V43.9603H71.2679L70.4844 52.7771H59.1637V52.7771H39.1227L39.8944 61.3871H59.1345V61.3871H69.7377Z" fill="white"/>
<rect x="4" y="4" width="110" height="110" rx="16" stroke="white" stroke-width="8"/>
</svg>
