<svg width="118" height="118" viewBox="0 0 118 118" fill="none" xmlns="http://www.w3.org/2000/svg">
<rect x="4" y="4" width="110" height="110" rx="16" stroke="white" stroke-width="8"/>
<path d="M80.1784 46.1708C84.2831 43.4284 87 38.7033 87 33.3417C87 24.8811 80.2406 18 71.9296 18H46.0704C37.7594 18 31 24.8811 31 33.3417C31 38.7033 33.7169 43.4284 37.8216 46.1708C33.7169 48.9166 31 53.6384 31 59C31 64.3616 33.7169 69.0834 37.8216 71.8292C33.7169 74.5749 31 79.2967 31 84.6583C31 93.1189 37.7987 100 46.1522 100C54.5057 100 61.4681 93.0423 61.4681 84.4917V70.3463C64.1457 72.8288 67.7038 74.3417 71.6023 74.3417H71.9296C80.2406 74.3417 87 67.4606 87 59C87 53.6384 84.2831 48.9133 80.1784 46.1708ZM61.4681 23.025H71.9296C77.5172 23.025 82.0638 27.6535 82.0638 33.3417C82.0638 39.0298 77.5172 43.6583 71.9296 43.6583H61.4681V23.025ZM46.0704 23.025H56.5319V43.6583H46.0704C40.4828 43.6583 35.9362 39.0298 35.9362 33.3417C35.9362 27.6535 40.4828 23.025 46.0704 23.025ZM35.9362 59C35.9362 53.3119 40.4828 48.6834 46.0704 48.6834H56.5319V69.3166H46.0638C40.4795 69.3133 35.9362 64.6882 35.9362 59ZM56.5319 84.4917C56.5319 90.2732 51.874 94.975 46.1522 94.975C40.4304 94.975 35.9362 90.3465 35.9362 84.6583C35.9362 78.9702 40.4795 74.345 46.0638 74.3417H56.5319V84.4917ZM71.9296 69.3166H71.6023C66.0147 69.3166 61.4681 64.6882 61.4681 59C61.4681 53.3119 66.0147 48.6834 71.6023 48.6834H71.9296C77.5172 48.6834 82.0638 53.3119 82.0638 59C82.0638 64.6882 77.5172 69.3166 71.9296 69.3166Z" fill="white"/>
</svg>
