<svg width="36" height="36" viewBox="0 0 36 36" fill="none" xmlns="http://www.w3.org/2000/svg">
<path d="M34 12.6667L34 2.00002M34 2.00002H23.3333M34 2.00002L18 18M14.4444 2H10.5333C7.54639 2 6.05291 2 4.91205 2.5813C3.90852 3.09262 3.09262 3.90852 2.5813 4.91205C2 6.05291 2 7.54639 2 10.5333V25.4667C2 28.4536 2 29.9471 2.5813 31.0879C3.09262 32.0915 3.90852 32.9074 4.91205 33.4187C6.05291 34 7.54639 34 10.5333 34H25.4667C28.4536 34 29.9471 34 31.0879 33.4187C32.0915 32.9074 32.9074 32.0915 33.4187 31.0879C34 29.9471 34 28.4536 34 25.4667V21.5556" stroke="#E84B27" stroke-width="3" stroke-linecap="round" stroke-linejoin="round"/>
</svg>
