<svg width="118" height="118" viewBox="0 0 118 118" fill="none" xmlns="http://www.w3.org/2000/svg">
<path d="M78.8371 42.467C79.9712 43.5815 81.4835 44.2115 83.0429 44.163C84.6497 44.2599 86.2564 43.63 87.3433 42.467C88.4774 41.2555 89.0445 39.6564 88.9973 38.0088C89.0445 36.4097 88.4774 34.859 87.4378 33.696C86.3981 32.5815 84.9804 32 83.1374 32C81.578 32 80.0658 32.5815 78.9316 33.696C77.7974 34.8106 77.1831 36.3612 77.2303 38.0088C77.1831 39.6564 77.7502 41.2555 78.8371 42.467Z" fill="#121212"/>
<path d="M77.7502 48.9119V86.2247C77.7502 86.7093 77.9865 87 78.459 87H87.7213C88.1466 87 88.3357 86.7577 88.3357 86.2247V48.9119C88.3357 48.4758 88.1466 48.2335 87.7213 48.2335H78.3645C77.9392 48.2335 77.7502 48.4273 77.7502 48.9119Z" fill="#121212"/>
<path fill-rule="evenodd" clip-rule="evenodd" d="M39.9452 74.6914H57.5247L61.3998 86.2245C61.4943 86.5637 61.8251 86.8059 62.1559 86.7575H72.0325C72.5051 86.7575 72.6469 86.5152 72.5051 85.9822L55.2564 36.0703C55.2092 35.828 55.0201 35.6826 54.6421 35.6826H42.4026C42.1663 35.7311 41.9773 35.9733 42.0245 36.2156C42.0245 37.2817 41.93 38.3478 41.741 39.3654C41.6071 39.7774 41.4969 40.1651 41.3936 40.5284C41.3511 40.6779 41.3097 40.8233 41.2684 40.9645L26.0518 85.8852C25.91 86.4667 26.0518 86.7575 26.5716 86.7575H35.4559C35.8812 86.8059 36.2592 86.5152 36.3537 86.0791L39.9452 74.6914ZM54.6893 64.8544H42.6861C43.395 62.8192 44.1038 60.5416 44.7654 58.0703C45.2335 56.5702 45.6835 55.0701 46.1266 53.5931C46.3992 52.6844 46.6692 51.7844 46.9392 50.8985C47.6008 48.8148 48.1206 46.7311 48.546 44.6474H48.6405C48.8249 45.2957 49.0093 45.9741 49.2019 46.6826C49.3548 47.2451 49.5128 47.8266 49.6801 48.4271C50.0582 49.8324 50.4835 51.2377 50.956 52.7399C51.1923 53.491 51.4168 54.23 51.6413 54.9689C51.8657 55.7079 52.0902 56.4469 52.3265 57.198C52.7518 58.6518 53.1771 60.057 53.6024 61.3654C54.0277 62.6253 54.4058 63.8368 54.6893 64.8544Z" fill="#121212"/>
<rect x="4" y="4" width="110" height="110" rx="16" stroke="#121212" stroke-width="8"/>
</svg>
