<svg width="118" height="118" viewBox="0 0 118 118" fill="none" xmlns="http://www.w3.org/2000/svg">
<path fill-rule="evenodd" clip-rule="evenodd" d="M32 35.7556V81.4888C32 81.8888 32.1551 82.0666 32.4653 82.0666H39.9885C40.2599 82.0221 40.4538 81.7555 40.415 81.4443V67.1777C41.1518 67.1777 41.6947 67.1777 42.0825 67.2222C42.4703 67.2666 43.0908 67.2666 44.0215 67.2666C47.2014 67.2666 50.1098 66.8666 52.7468 65.7555C55.2674 64.6888 57.439 62.8222 58.9902 60.3333C60.5413 57.8444 61.3169 54.6888 61.3169 50.8666C61.3169 48.8666 61.0067 46.9555 60.425 45.0889C59.8045 43.1778 58.8351 41.4444 57.5941 40.0222C56.1205 38.3778 54.3367 37.1333 52.3977 36.3778C50.2261 35.4444 47.5892 35 44.4093 35C43.2459 35 42.0825 35 40.8804 35.0444C40.3 35.0659 39.7377 35.077 39.1935 35.0877C38.6105 35.0992 38.0482 35.1103 37.5066 35.1333C36.9988 35.1549 36.5092 35.166 36.0335 35.1768C35.5283 35.1882 35.0387 35.1993 34.5594 35.2222C33.6675 35.2667 33.0471 35.2667 32.3878 35.2667C32.1164 35.2667 32 35.4444 32 35.7556ZM40.4538 58.7777V43.8444C40.7253 43.8 41.2682 43.7555 42.0438 43.8C42.7806 43.7555 43.6725 43.7555 44.6807 43.7555C46.2707 43.7111 47.8218 43.9778 49.2566 44.6444C50.3812 45.1333 51.3119 46.0222 51.9712 47.1778C52.5916 48.3777 52.9019 49.7555 52.8631 51.1333C52.8631 53.0889 52.4753 54.6 51.6609 55.7111C50.8078 56.8222 49.722 57.6666 48.4811 58.0666C47.0462 58.5999 45.5339 58.8666 44.0215 58.8666H41.9662C41.5342 58.8666 41.0689 58.8283 40.5701 58.7873C40.5315 58.7841 40.4928 58.7809 40.4538 58.7777Z" fill="#121212"/>
<path d="M81.7921 54.5556C83.1106 54.8667 84.3515 55.3556 85.5149 56.0667C85.67 56.1556 85.8639 56.1556 86.2129 56.0667C86.3293 55.9778 86.4068 55.8001 86.4068 55.6223V48.3779C86.4068 48.2001 86.368 48.0223 86.3293 47.8445C86.2517 47.6667 86.0966 47.489 85.9415 47.4445C84.8944 46.9556 83.7699 46.6001 82.6065 46.4223C81.0165 46.1556 79.3878 46.0223 77.7979 46.0223C75.0446 46.0223 72.7566 46.5112 70.934 47.5779C69.2665 48.4667 67.8317 49.889 66.8622 51.6667C66.0091 53.3112 65.5437 55.1334 65.5437 57.0445C65.505 58.6001 65.8152 60.1556 66.4356 61.5778C67.1724 63.0889 68.1807 64.3778 69.3828 65.3556C71.0891 66.6889 72.9117 67.7556 74.8895 68.5556C76.7896 69.4 78.0693 70.0667 78.6898 70.6445C79.3103 71.2222 79.6205 71.8 79.6205 72.4222C79.6205 73.2222 79.1939 73.9778 78.5735 74.2889C77.8754 74.6889 76.8284 74.9111 75.3548 74.9111C73.8037 74.9111 72.2525 74.6889 70.7789 74.2445C69.0726 73.8 67.4827 73.0889 65.9703 72.0667C65.854 71.9778 65.7376 71.9334 65.6213 72.0222C65.5049 72.1111 65.4662 72.2889 65.4662 72.4222V80.1556C65.4274 80.5111 65.6213 80.8222 65.8927 81C67.1337 81.6667 68.4909 82.1556 69.8482 82.4222C71.5933 82.8222 73.3383 83 75.1221 83C77.9142 83 80.241 82.5111 82.1411 81.5778C83.8862 80.7778 85.3986 79.4 86.4844 77.6222C87.4926 75.8889 88.0355 73.8 87.9968 71.7111C88.0355 70.1111 87.7253 68.5556 87.1048 67.1334C86.368 65.6223 85.321 64.3778 84.0413 63.4445C82.1799 62.1112 80.1634 61 78.0693 60.2C77.1386 59.7556 76.208 59.2667 75.316 58.7334C74.8119 58.4223 74.3466 58.0223 73.9976 57.5334C73.7649 57.1778 73.6098 56.7778 73.6098 56.3778C73.6098 55.9778 73.7261 55.5334 73.92 55.1778C74.1914 54.7334 74.618 54.4223 75.1221 54.289C75.8589 54.0667 76.6733 53.9334 77.4489 53.9778C78.9225 53.9778 80.3573 54.2001 81.7921 54.5556Z" fill="#121212"/>
<rect x="4" y="4" width="110" height="110" rx="16" stroke="#121212" stroke-width="8"/>
</svg>
